<?xml version="1.0"?>
<svg xmlns="http://www.w3.org/2000/svg" width="512" height="512" viewBox="0 0 512 512"><g><path d="M480,304H456V288h24a8,8,0,0,0,8-8V184a72.081,72.081,0,0,0-72-72H264V88h88a8,8,0,0,0,8-8V24a8,8,0,0,0-8-8H256a8,8,0,0,0-8,8v88H96a72.081,72.081,0,0,0-72,72v96a8,8,0,0,0,8,8H56v16H32A24.027,24.027,0,0,0,8,328v16a24.027,24.027,0,0,0,24,24H56v16H32a8,8,0,0,0-8,8v32a72.081,72.081,0,0,0,72,72H416a72.081,72.081,0,0,0,72-72V392a8,8,0,0,0-8-8H456V368h24a24.028,24.028,0,0,0,24-24V328A24.028,24.028,0,0,0,480,304ZM264,32h80V72H264ZM40,272V184a56.063,56.063,0,0,1,56-56H416a56.063,56.063,0,0,1,56,56v88Zm32,16H440v16H72ZM472,400v24a56.063,56.063,0,0,1-56,56H96a56.063,56.063,0,0,1-56-56V400H316.687l29.656,29.657a8,8,0,0,0,11.314,0L387.313,400Zm-32-16H384a8,8,0,0,0-5.657,2.343L352,412.687l-26.343-26.344A8,8,0,0,0,320,384H72V368H440Zm48-40a8.009,8.009,0,0,1-8,8H32a8.009,8.009,0,0,1-8-8V328a8.009,8.009,0,0,1,8-8H480a8.009,8.009,0,0,1,8,8Z"/><path d="M104,328H48a8,8,0,0,0,0,16h56a8,8,0,0,0,0-16Z"/><path d="M136,328h-8a8,8,0,0,0,0,16h8a8,8,0,0,0,0-16Z"/></g></svg>
